<svg xmlns="http://www.w3.org/2000/svg" xmlns:xlink="http://www.w3.org/1999/xlink" xmlns:lucid="lucid" width="1402.06" height="1576.6"><g transform="translate(0 0)" lucid:page-tab-id="0_0"><path d="M0 0h1402.06v1576.6H0z" fill="#fff"/><path d="M119.75 782.26c0 10.9-8.84 19.75-19.75 19.75-10.9 0-19.75-8.84-19.75-19.74 0-10.9 8.84-19.75 19.75-19.75 10.9 0 19.75 8.85 19.75 19.76z" stroke="#000" fill="#fff"/><path d="M60 767.5c0-2.75 2.24-5 5-5h70c2.76 0 5 2.25 5 5v148c0 2.77-2.24 5-5 5H65c-2.76 0-5-2.23-5-5z" fill="none"/><path d="M100 802v50.3c0 2.77 1.2 6.9 2.67 9.23L140 920.5m-40-63.2l-40 63.2m0-98.74h80" stroke="#000" fill="none"/><use xlink:href="#a" transform="matrix(1,0,0,1,-20,920.5064432989691) translate(98.00617283950618 14.11111111111111)"/><path d="M520 320c0 26.9-29.1 48.74-65 48.74S390 346.9 390 320c0-26.94 29.1-48.76 65-48.76s65 21.82 65 48.75z" stroke="#000" stroke-opacity="0" stroke-width="2" fill="#3278cc"/><use xlink:href="#b" transform="matrix(1,0,0,1,409.5,290.7371134020618) translate(5.8549382716049365 32.611111111111114)"/><use xlink:href="#c" transform="matrix(1,0,0,1,409.5,290.7371134020618) translate(43.70679012345679 32.611111111111114)"/><path d="M990 320c0 26.9-24.62 48.74-55 48.74S880 346.9 880 320c0-26.94 24.62-48.76 55-48.76s55 21.82 55 48.75z" stroke="#000" stroke-opacity="0" stroke-width="2" fill="#3278cc"/><use xlink:href="#d" transform="matrix(1,0,0,1,896.4999999999998,290.7371134020618) translate(14.950617283950614 23.277777777777775)"/><use xlink:href="#e" transform="matrix(1,0,0,1,896.4999999999998,290.7371134020618) translate(9.592592592592592 41.94444444444444)"/><path d="M520 431.25c0 25.54-29.1 46.24-65 46.24s-65-20.7-65-46.25c0-25.54 29.1-46.24 65-46.24s65 20.7 65 46.25z" stroke="#000" stroke-opacity="0" stroke-width="2" fill="#3278cc"/><use xlink:href="#f" transform="matrix(1,0,0,1,409.5,403.5077319587629) translate(13.567901234567898 21.777777777777775)"/><use xlink:href="#g" transform="matrix(1,0,0,1,409.5,403.5077319587629) translate(60.148148148148145 21.777777777777775)"/><use xlink:href="#h" transform="matrix(1,0,0,1,409.5,403.5077319587629) translate(26.487654320987655 40.44444444444444)"/><path d="M100.98 409.7l288.54-89.56M101 409.7l-3.36 1.03" stroke="#666" fill="none"/><path d="M390 320v.5l-.34.12-.3-.96.66-.2zM525.48 320.5h-4.98v-1h4.98zm14.94 0h-9.96v-1h9.96zm14.94 0h-9.96v-1h9.96zm14.94 0h-9.96v-1h9.96zm14.95 0h-9.97v-1h9.97zm14.94 0h-9.97v-1h9.96zm14.93 0h-9.96v-1h9.96zm14.94 0h-9.96v-1h9.97zm5.3 0h-.32v-1h.33zm84.35 0h-9.96v-1h9.96zm14.94 0h-9.96v-1h9.96zm14.94 0h-9.96v-1h9.96zm14.94 0h-9.96v-1h9.96zm14.94 0h-9.96v-1h9.96zm14.94 0h-9.96v-1h9.96zm14.94 0h-9.96v-1h9.96zm14.95 0h-9.95v-1h9.96zm14.95 0h-9.96v-1h9.95zm14.94 0h-9.97v-1h9.96zm14.93 0h-9.96v-1h9.96zm9.96 0h-5v-1h5z" fill="#666"/><path d="M520.5 320.5H520l.02-.5v-.5h.5zM880 320l-17.94 10.6-.5-.86 16.48-9.75-16.5-9.76.52-.86z" fill="#666"/><use xlink:href="#i" transform="matrix(1,0,0,1,635.3801935046777,311.9871134020618) translate(0 10.666666666666668)"/><path d="M255.08 94.47c0-6.62 5.37-12 12-12h867.28c6.62 0 12 5.38 12 12v27.6c0 6.63-5.38 12-12 12H267.08c-6.63 0-12-5.37-12-12z" stroke="#000" stroke-opacity="0" stroke-width="2" fill="#fff" fill-opacity="0"/><use xlink:href="#j" transform="matrix(1,0,0,1,275.0797045029006,82.47422680412372) translate(222.2222222222222 31.333333333333336)"/><use xlink:href="#k" transform="matrix(1,0,0,1,275.0797045029006,82.47422680412372) translate(286.66666666666663 31.333333333333336)"/><use xlink:href="#l" transform="matrix(1,0,0,1,275.0797045029006,82.47422680412372) translate(415.4074074074074 31.333333333333336)"/><use xlink:href="#m" transform="matrix(1,0,0,1,275.0797045029006,82.47422680412372) translate(453.85185185185185 31.333333333333336)"/><use xlink:href="#l" transform="matrix(1,0,0,1,275.0797045029006,82.47422680412372) translate(541.1111111111111 31.333333333333336)"/><use xlink:href="#n" transform="matrix(1,0,0,1,275.0797045029006,82.47422680412372) translate(579.5555555555555 31.333333333333336)"/><path d="M491.9 146.72c0-6.63 5.38-12 12-12h397.43c6.63 0 12 5.37 12 12v3.75c0 6.63-5.37 12-12 12H503.9c-6.62 0-12-5.37-12-12z" stroke="#000" stroke-opacity="0" stroke-width="2" fill="#fff" fill-opacity="0"/><use xlink:href="#o" transform="matrix(1,0,0,1,511.9044622217627,134.72194443333507) translate(76.73148148148148 17.11111111111111)"/><use xlink:href="#p" transform="matrix(1,0,0,1,511.9044622217627,134.72194443333507) translate(85.37345679012346 17.11111111111111)"/><use xlink:href="#q" transform="matrix(1,0,0,1,511.9044622217627,134.72194443333507) translate(106.97839506172839 17.11111111111111)"/><use xlink:href="#r" transform="matrix(1,0,0,1,511.9044622217627,134.72194443333507) translate(128.58333333333331 17.11111111111111)"/><use xlink:href="#q" transform="matrix(1,0,0,1,511.9044622217627,134.72194443333507) translate(163.8858024691358 17.11111111111111)"/><use xlink:href="#s" transform="matrix(1,0,0,1,511.9044622217627,134.72194443333507) translate(185.49074074074076 17.11111111111111)"/><use xlink:href="#t" transform="matrix(1,0,0,1,511.9044622217627,134.72194443333507) translate(224.37962962962962 17.11111111111111)"/><use xlink:href="#u" transform="matrix(1,0,0,1,511.9044622217627,134.72194443333507) translate(232.7191358024691 17.11111111111111)"/><use xlink:href="#v" transform="matrix(1,0,0,1,511.9044622217627,134.72194443333507) translate(265.5154320987654 17.11111111111111)"/><path d="M461.6 127.95h482.14M461.6 127.95h-1M943.7 127.95h1.04" stroke="#b2b2b2" stroke-width="2" fill="none"/><path d="M330 225c0-2.76 2.24-5 5-5h750c2.76 0 5 2.24 5 5v1270c0 2.76-2.24 5-5 5H335c-2.76 0-5-2.24-5-5z" stroke="#666" fill="none"/><use xlink:href="#w" transform="matrix(1,0,0,1,338,228) translate(293.6876670484918 17.58533791523482)"/><use xlink:href="#x" transform="matrix(1,0,0,1,338,228) translate(375.5191548937254 17.58533791523482)"/><use xlink:href="#y" transform="matrix(1,0,0,1,338,228) translate(409.32976963217516 17.58533791523482)"/><path d="M99.66 858.03l.34.2M100.87 858.8l-3.4-2.16M100.53 858.57l-3.4-2.15" stroke="#000" stroke-width="2" fill="none"/><path d="M101.02 410.04L389.5 431.2M101.03 410.04l-3.5-.26" stroke="#666" fill="none"/><path d="M390.02 430.75l-.02.5v.5l-.55-.04.08-1z" fill="#666"/><path d="M532.73 638.7c0 25.55-30.78 46.25-68.75 46.25s-68.75-20.7-68.75-46.24c0-25.52 30.78-46.23 68.75-46.23s68.75 20.7 68.75 46.24z" stroke="#000" stroke-opacity="0" stroke-width="2" fill="#3278cc"/><use xlink:href="#z" transform="matrix(1,0,0,1,415.85740416827605,610.9690721649483) translate(3.669753086419746 21.777777777777775)"/><use xlink:href="#A" transform="matrix(1,0,0,1,415.85740416827605,610.9690721649483) translate(73.49691358024691 21.777777777777775)"/><use xlink:href="#B" transform="matrix(1,0,0,1,415.85740416827605,610.9690721649483) translate(20.41358024691358 40.44444444444444)"/><path d="M528.98 1302.5c0 25.53-29.1 46.23-65 46.23s-65-20.7-65-46.24c0-25.55 29.1-46.25 65-46.25s65 20.7 65 46.24z" stroke="#000" stroke-opacity="0" stroke-width="2" fill="#3278cc"/><use xlink:href="#C" transform="matrix(1,0,0,1,418.48240416827605,1274.7480670103093) translate(28.734567901234566 21.777777777777775)"/><use xlink:href="#B" transform="matrix(1,0,0,1,418.48240416827605,1274.7480670103093) translate(17.41358024691358 40.44444444444444)"/><path d="M990 432.5c0 26.25-24.62 47.5-55 47.5s-55-21.25-55-47.5c0-26.22 24.62-47.5 55-47.5s55 21.28 55 47.5z" stroke="#000" stroke-opacity="0" stroke-width="2" fill="#3278cc"/><use xlink:href="#d" transform="matrix(1,0,0,1,896.4999999999998,404.0128865979382) translate(14.950617283950614 22.277777777777775)"/><use xlink:href="#e" transform="matrix(1,0,0,1,896.4999999999998,404.0128865979382) translate(9.592592592592592 40.94444444444444)"/><path d="M879.1 432v1l-5-.05v-1zm-9.97-.1v1l-9.97-.1v-1zm-14.94-.16l-.02 1-9.97-.1.02-1zm-14.96-.15v1l-9.98-.12.02-1zm-14.95-.17l-.02 1-9.96-.1v-1zm-14.95-.16v1l-9.98-.1v-1zm-14.95-.15v1l-9.97-.1v-1zm-14.95-.16v1l-9.97-.1v-1zm-14.94-.16v1l-9.97-.1v-1zm-14.94-.15v1l-9.97-.1v-1zm-14.94-.16v1l-9.98-.12v-1zm-14.95-.17v1l-9.98-.1v-1zm-84.36-.88v1h-.34v-1zm-5.3-.06l-.02 1-9.96-.1v-1zm-14.95-.17v1l-9.98-.1v-1zm-14.95-.15v1l-9.97-.1v-1zm-14.95-.16v1l-9.97-.1v-1zm-14.94-.16v1l-9.97-.1v-1zm-14.94-.15v1l-9.97-.1v-1zm-14.95-.15v1l-9.96-.1v-1zm-14.93-.16v1l-5-.06.02-1z" fill="#666"/><path d="M520.4 428.24v1h-.48l-.07-1zM880 432.5l-18.05 10.44-.5-.87 16.6-9.58-16.4-9.93.52-.86z" fill="#666"/><use xlink:href="#D" transform="matrix(1,0,0,1,635.3115459646037,422.33143177900746) translate(0 10.666666666666668)"/><path d="M525.23 808.74c0 25.54-29.1 46.24-65 46.24s-65-20.7-65-46.24c0-25.53 29.1-46.23 65-46.23s65 20.7 65 46.24z" stroke="#000" stroke-opacity="0" stroke-width="2" fill="#3278cc"/><use xlink:href="#E" transform="matrix(1,0,0,1,414.73240416827605,781.0012886597938) translate(14 21.777777777777775)"/><use xlink:href="#F" transform="matrix(1,0,0,1,414.73240416827605,781.0012886597938) translate(-4.148148148148152 40.44444444444444)"/><path d="M850 1426.24c0 25.53-29.1 46.23-65 46.23s-65-20.7-65-46.23c0-25.54 29.1-46.24 65-46.24s65 20.7 65 46.24z" stroke="#000" stroke-opacity="0" stroke-width="2" fill="#3278cc"/><use xlink:href="#C" transform="matrix(1,0,0,1,739.5,1398.4948453608247) translate(28.734567901234566 21.777777777777775)"/><use xlink:href="#F" transform="matrix(1,0,0,1,739.5,1398.4948453608247) translate(-4.148148148148152 40.44444444444444)"/><path d="M100.92 852.2L394.82 639M100.93 852.2l-2.84 2.07" stroke="#666" fill="none"/><path d="M395.23 638.7l.02.62-.14.1-.58-.8.74-.54z" fill="#666"/><path d="M100.82 852.9l313.14 419.45M100.82 852.92l-2.1-2.82" stroke="#666" fill="none"/><path d="M414.65 1272.44l-.78.63-.32-.43.8-.6z" fill="#666"/><path d="M800 506.24c0 25.53-29.1 46.23-65 46.23s-65-20.7-65-46.23c0-25.54 29.1-46.24 65-46.24s65 20.7 65 46.24z" stroke="#000" stroke-opacity="0" stroke-width="2" fill="#3278cc"/><use xlink:href="#G" transform="matrix(1,0,0,1,689.5,478.49484536082474) translate(-1.922839506172842 31.11111111111111)"/><path d="M673.82 489.34l-.26.96-4.75-1.27.27-.97zm-9.5-2.55l-.27.95-9.5-2.54.24-.96zm-14.28-3.83l-.26.96-9.52-2.55.26-.96zm-14.28-3.83l-.25.97-9.5-2.54.2-.82h.6zm-71.36-19.1l-.2.7h-1l-8.57-2.3.26-.96zm-14.27-3.83l-.26.98-9.5-2.55.25-.97zm-14.27-3.8l-.26.95-9.5-2.54.24-.96zm-14.27-3.83l-.27.96-4.76-1.27.26-.97z" fill="#666"/><path d="M674.42 489.5l-.5.9-.37-.1.26-.97zM536.17 442.9l-18.45 5.15 13.4 13.68-.7.7-14.6-14.9 20.08-5.6z" fill="#666"/><use xlink:href="#H" transform="matrix(1,0,0,1,555.370370256467,460.74355667052635) translate(0 10.666666666666668)"/><path d="M850 1302.5c0 25.53-29.1 46.23-65 46.23s-65-20.7-65-46.24c0-25.55 29.1-46.25 65-46.25s65 20.7 65 46.24z" stroke="#000" stroke-opacity="0" stroke-width="2" fill="#3278cc"/><use xlink:href="#G" transform="matrix(1,0,0,1,739.5,1274.7480670103093) translate(-1.922839506172842 31.11111111111111)"/><path d="M719.5 1303h-4.86v-1h4.86zm-9.72 0h-9.73v-1h9.73zm-14.6 0h-9.7v-1h9.7zm-97 0h-.22v-1h.23zm-5.1 0h-9.7v-1h9.7zm-14.57 0h-9.7v-1h9.7zm-14.58 0h-9.72v-1h9.72zm-14.58 0h-9.72v-1h9.72zm-14.6 0h-4.85v-1h4.85zm145.87 0h-3.15v-1h3.16zM720 1302.5v.5h-.5v-1h.52z" fill="#666"/><path d="M547.43 1292.74l-16.48 9.75 16.48 9.74-.5.86-17.95-10.6 17.94-10.62z" fill="#666"/><use xlink:href="#H" transform="matrix(1,0,0,1,598.1900662625212,1294.4903350515465) translate(0.005000000000002558 10.666666666666668)"/><path d="M840 806.23c0 26.92-29.1 48.75-65 48.75s-65-21.83-65-48.75 29.1-48.75 65-48.75 65 21.83 65 48.75z" stroke="#000" stroke-opacity="0" stroke-width="2" fill="#3278cc"/><use xlink:href="#d" transform="matrix(1,0,0,1,729.5,776.9806701030927) translate(21.950617283950614 23.277777777777775)"/><use xlink:href="#I" transform="matrix(1,0,0,1,729.5,776.9806701030927) translate(4.148148148148145 41.94444444444444)"/><path d="M840 638.7c0 25.55-29.1 46.25-65 46.25s-65-20.7-65-46.24c0-25.52 29.1-46.23 65-46.23s65 20.7 65 46.24z" stroke="#000" stroke-opacity="0" stroke-width="2" fill="#3278cc"/><use xlink:href="#J" transform="matrix(1,0,0,1,729.5,610.9690721649483) translate(14.453703703703702 21.777777777777775)"/><use xlink:href="#K" transform="matrix(1,0,0,1,729.5,610.9690721649483) translate(2.787037037037038 40.44444444444444)"/><path d="M709.6 636.7h-4.9v-1h4.9zm-9.8 0h-9.77v-1h9.78zm-14.66 0h-9.78v-1h9.78zm-103.42 0h-9.07v-1h9.07zm-13.96 0h-9.78v-1h9.78zm-14.68 0h-9.78v-1h9.78zm-14.67 0h-4.88v-1h4.9zm132.07 0h-9.5v-1h9.5z" fill="#666"/><path d="M710.1 636.14l-.02.56h-.5v-1h.57zM551.06 626.45l-16.48 9.75 16.48 9.75-.5.86-17.95-10.6 17.95-10.6z" fill="#666"/><use xlink:href="#H" transform="matrix(1,0,0,1,581.7244944479355,628.1984536082473) translate(0.005000000000002558 10.666666666666668)"/><path d="M119.75 339.75c0 10.9-8.84 19.75-19.75 19.75-10.9 0-19.75-8.84-19.75-19.75 0-10.9 8.84-19.75 19.75-19.75 10.9 0 19.75 8.84 19.75 19.75z" stroke="#000" fill="#fff"/><path d="M60 325c0-2.76 2.24-5 5-5h70c2.76 0 5 2.24 5 5v148c0 2.76-2.24 5-5 5H65c-2.76 0-5-2.24-5-5z" fill="none"/><path d="M100 359.5v50.3c0 2.76 1.2 6.9 2.67 9.22L140 478m-40-63.2L60 478m0-98.75h80" stroke="#000" fill="none"/><use xlink:href="#L" transform="matrix(1,0,0,1,-20,478) translate(61.49382716049382 14.11111111111111)"/><use xlink:href="#M" transform="matrix(1,0,0,1,-20,478) translate(119.26543209876543 14.11111111111111)"/><path d="M1299.34 619.75c0 10.9-8.84 19.75-19.75 19.75-10.92 0-19.76-8.84-19.76-19.75 0-10.9 8.84-19.75 19.75-19.75 10.9 0 19.74 8.84 19.74 19.75z" stroke="#000" fill="#fff"/><path d="M1239.6 605c0-2.76 2.23-5 5-5h70c2.75 0 5 2.24 5 5v148c0 2.76-2.25 5-5 5h-70c-2.77 0-5-2.24-5-5z" fill="none"/><path d="M1279.6 639.5v50.3c0 2.76 1.18 6.9 2.66 9.22L1319.6 758m-40-63.2l-40 63.2m0-98.75h80" stroke="#000" fill="none"/><use xlink:href="#N" transform="matrix(1,0,0,1,1159.5876288659797,758) translate(91.95679012345678 14.11111111111111)"/><path d="M1279.8 689.6L990.3 320.4M1279.8 689.6l2.16 2.76" stroke="#000" fill="none"/><path d="M990.7 320.08l-.73.58.03-.67v-.84z"/><path d="M1278.73 689.67L990.37 432.85M1278.72 689.66l2.62 2.34" stroke="#000" fill="none"/><path d="M990.72 432.48l-.67.75-.08-.07.03-.65v-.66z"/><path d="M1278.62 690.13L840.48 806.1M1278.6 690.13l3.4-.9" stroke="#000" fill="none"/><path d="M840.62 806.58l-.64.17.02-.52v-.5l.37-.1z"/><path d="M20 1065c0-2.76 2.24-5 5-5h157.5c2.77 0 6.6 1.58 8.54 3.54l25.42 25.42c1.96 1.95 3.54 5.77 3.54 8.53v119.97c0 2.77-2.24 5-5 5H25c-2.76 0-5-2.23-5-5z" stroke="#000" stroke-opacity="0" stroke-width="2" fill="#666"/><path d="M188.72 1064.85c-.67-2.68.37-3.27 2.32-1.3l25.42 25.4c1.96 1.96 1.37 3-1.3 2.33l-16.3-4.07c-2.68-.66-5.4-3.38-6.07-6.05z" stroke="#000" stroke-opacity="0" stroke-width="2" fill="#474747"/><use xlink:href="#O" transform="matrix(1,0,0,1,36.24742268041237,1076.2474226804125) translate(28.75617283950617 48.6111111111111)"/><use xlink:href="#P" transform="matrix(1,0,0,1,36.24742268041237,1076.2474226804125) translate(68.50925925925927 48.6111111111111)"/><use xlink:href="#Q" transform="matrix(1,0,0,1,36.24742268041237,1076.2474226804125) translate(81.47222222222223 48.6111111111111)"/><use xlink:href="#R" transform="matrix(1,0,0,1,36.24742268041237,1076.2474226804125) translate(11.256172839506178 67.27777777777777)"/><use xlink:href="#S" transform="matrix(1,0,0,1,36.24742268041237,1076.2474226804125) translate(88.60185185185186 67.27777777777777)"/><use xlink:href="#T" transform="matrix(1,0,0,1,36.24742268041237,1076.2474226804125) translate(135.1820987654321 67.27777777777777)"/><use xlink:href="#U" transform="matrix(1,0,0,1,36.24742268041237,1076.2474226804125) translate(5.833333333333329 85.94444444444444)"/><use xlink:href="#V" transform="matrix(1,0,0,1,36.24742268041237,1076.2474226804125) translate(40.358024691358025 85.94444444444444)"/><use xlink:href="#W" transform="matrix(1,0,0,1,36.24742268041237,1076.2474226804125) translate(82.70370370370371 85.94444444444444)"/><use xlink:href="#X" transform="matrix(1,0,0,1,36.24742268041237,1076.2474226804125) translate(107.72222222222223 85.94444444444444)"/><use xlink:href="#Y" transform="matrix(1,0,0,1,36.24742268041237,1076.2474226804125) translate(153.5246913580247 85.94444444444444)"/><use xlink:href="#Z" transform="matrix(1,0,0,1,36.24742268041237,1076.2474226804125) translate(14.929012345679013 104.61111111111111)"/><use xlink:href="#aa" transform="matrix(1,0,0,1,36.24742268041237,1076.2474226804125) translate(35.66975308641975 104.61111111111111)"/><use xlink:href="#ab" transform="matrix(1,0,0,1,36.24742268041237,1076.2474226804125) translate(80.52160493827161 104.61111111111111)"/><use xlink:href="#ac" transform="matrix(1,0,0,1,36.24742268041237,1076.2474226804125) translate(106.40432098765433 104.61111111111111)"/><path d="M719.43 1425.37l-.47.9-4.36-2.3.46-.88zm-8.73-4.57l-.47.9-8.72-4.58.47-.88zm-13.1-6.85l-.46.9-8.73-4.58.48-.88zm-13.1-6.85l-.45.9-8.73-4.58.47-.9zm-13.08-6.85l-.46.9-8.73-4.58.46-.9zm-13.1-6.85l-.45.88-8.73-4.56.46-.9zm-13.08-6.85l-.47.88-8.72-4.57.17-.34h1.33zM605.96 1366l-.28.52h-.86l-8.05-4.2.46-.9zm-13.1-6.86l-.46.88-8.72-4.56.46-.9zm-13.08-6.85l-.47.87-8.72-4.57.47-.88zm-13.1-6.87l-.46.9-8.73-4.58.46-.88zm-13.1-6.85l-.45.9-8.73-4.58.46-.88zm-13.08-6.85l-.46.9-8.73-4.58.47-.9zm-13.1-6.85l-.46.9-4.36-2.3.46-.88z"/><path d="M523.05 1322.6l-.46.9-.5-.27.54-.84zM720 1426.24l-20.82 1.08-.05-1 19.13-1-10.1-16.28.86-.52z"/><g><use xlink:href="#D" transform="matrix(1,0,0,1,584.554327797099,1366.5218574311737) translate(0.005000000000002558 10.666666666666668)"/></g><path d="M525.73 808.74l183.36-2.5" fill="none"/><path d="M525.73 808.74l5.1-.07m5.1-.07l10.18-.14m5.1-.07l10.2-.15m5.08-.07l10.2-.14m5.08-.07l10.2-.13m5.08-.07l10.2-.14m5.08-.07l10.18-.14m5.1-.07l10.18-.14m5.1-.06l10.18-.13m5.1-.06l10.18-.14m5.1-.07l10.18-.14m5.1-.08l10.18-.14m5.1-.07l5.1-.06" stroke="#666" fill="none"/><path d="M525.75 809.24h-.54l.03-.5v-.5h.5zM710 806.23l-17.8 10.85-.52-.85 16.36-9.97-16.62-9.53.5-.87z" fill="#666"/><g><use xlink:href="#D" transform="matrix(1,0,0,1,578.732034501729,787.5024347551334) translate(0 10.666666666666668)"/></g><path d="M528.98 946.24c0 25.53-29.1 46.23-65 46.23s-65-20.7-65-46.23c0-25.54 29.1-46.24 65-46.24s65 20.7 65 46.24z" stroke="#000" stroke-opacity="0" stroke-width="2" fill="#3278cc"/><g><use xlink:href="#ad" transform="matrix(1,0,0,1,418.48240416827605,918.4948453608247) translate(11.472222222222221 21.777777777777775)"/><use xlink:href="#ae" transform="matrix(1,0,0,1,418.48240416827605,918.4948453608247) translate(8.793209876543202 40.44444444444444)"/></g><path d="M532.73 1106.24c0 25.53-30.78 46.23-68.75 46.23s-68.75-20.7-68.75-46.23c0-25.54 30.78-46.24 68.75-46.24s68.75 20.7 68.75 46.24z" stroke="#000" stroke-opacity="0" stroke-width="2" fill="#3278cc"/><g><use xlink:href="#af" transform="matrix(1,0,0,1,415.85740416827605,1078.4948453608247) translate(14.429012345679013 21.777777777777775)"/><use xlink:href="#B" transform="matrix(1,0,0,1,415.85740416827605,1078.4948453608247) translate(20.41358024691358 40.44444444444444)"/></g><path d="M100.92 852.8l310.42 223.13M100.93 852.8l-2.85-2.04" stroke="#666" fill="none"/><path d="M412.16 1075.9l-.83.64-.3-.2.6-.82zM464.48 762.15h-1v-5.1h1zm0-10.17h-1V741.8h1zm0-15.26h-1v-4.92h1zm0-20.92h-1v-4.5h1zm0-9.6h-1v-10.17h1zm0-15.26h-1v-5.08h1z" fill="#666"/><path d="M474.6 702.9l-.87.5-9.75-16.5-9.75 16.5-.86-.5 10.6-17.95zM464.48 762.67l-1-.04v-.5h1z" fill="#666"/><g><use xlink:href="#H" transform="matrix(1,0,0,1,424.35277453864643,715.7992800118731) translate(0 10.666666666666668)"/></g><path d="M528.75 925.5l-4.56 2.4-.47-.9 4.55-2.37zm13.66-7.15l-9.1 4.78-.46-.9 9.1-4.76zm13.68-7.16l-9.1 4.77-.48-.9 9.1-4.76zm13.66-7.17l-9.1 4.78-.47-.88 9.1-4.77zm13.67-7.16l-9.1 4.78-.47-.9 9.1-4.76zm4.56-2.38l-.46-.9 2.5-1.32h2.17zm36.44-19.1l-1.7.88h-2.15l3.4-1.77zm13.67-7.16l-9.1 4.77-.48-.88 9.1-4.77zm13.66-7.16l-9.1 4.77-.47-.9 9.1-4.76zm13.67-7.16l-9.1 4.77-.48-.9 9.1-4.77zm13.66-7.16l-9.1 4.77-.47-.88 9.1-4.78zm13.67-7.16l-9.1 4.77-.48-.88 9.1-4.8zm13.66-7.16l-9.12 4.77-.46-.87 9.1-4.78zm9.1-4.77l-4.55 2.38-.47-.88 4.56-2.4z" fill="#666"/><path d="M524.2 927.9l-.43.22-.5-.86.47-.25zM716.08 826.8l-10.97 17.73-.84-.53 10.08-16.3-19.13-.97.06-1z" fill="#666"/><g><use xlink:href="#H" transform="matrix(1,0,0,1,566.730069035701,876.2844125990943) translate(0.005000000000002558 10.666666666666668)"/></g><path d="M464.95 1059.53v-66.16" fill="none"/><path d="M464.95 1059.53v-5.5m0-5.52v-11.02m0-5.5v-11.04m0-5.52v-11.02m0-5.52v-5.5" stroke="#666" fill="none"/><path d="M465.45 1060.05l-1-.03v-.5h1zM475.56 1010.4l-.86.5-9.75-16.48-9.76 16.5-.87-.52 10.62-17.94z" fill="#666"/><g><use xlink:href="#D" transform="matrix(1,0,0,1,383.68609454990997,1018.2467837156664) translate(0 10.666666666666668)"/></g><path d="M850 1106.24c0 25.53-22.4 46.23-50 46.23s-50-20.7-50-46.23c0-25.54 22.4-46.24 50-46.24s50 20.7 50 46.24z" stroke="#000" stroke-opacity="0" stroke-width="2" fill="#3278cc"/><g><use xlink:href="#ag" transform="matrix(1,0,0,1,765.0000000000001,1078.4948453608247) translate(11.731481481481477 21.777777777777775)"/><use xlink:href="#ah" transform="matrix(1,0,0,1,765.0000000000001,1078.4948453608247) translate(11.666666666666668 40.44444444444444)"/></g><path d="M538.37 1106.74h-5.14v-1h5.14zm15.42 0h-10.3v-1h10.3zm15.4 0h-10.27v-1h10.28zm15.43 0h-10.28v-1h10.28zm92.5 0h-10.27v-1h10.28zm15.43 0h-10.28v-1h10.28zm15.42 0H697.7v-1h10.28zm15.4 0h-10.27v-1h10.3zm15.43 0h-10.27v-1h10.28zm10.3 0h-5.15v-1h5.14z" fill="#666"/><path d="M533.25 1106.74h-.54l.03-.5v-.5h.52zM750 1106.24l-17.94 10.6-.5-.85 16.48-9.76-16.5-9.75.52-.87z" fill="#666"/><g><use xlink:href="#H" transform="matrix(1,0,0,1,586.576451764158,1098.2371134020618) translate(0.005000000000002558 10.666666666666668)"/></g><path d="M464.48 1255.75h-1v-4.87h1zm0-9.75h-1v-9.75h1zm0-14.62h-1v-9.75h1zm0-29.25h-1v-9.75h1zm0-14.62h-1v-9.74h1zm0-14.62h-1v-9.75h1zm0-14.62h-1v-4.88h1zM464.48 1256.27l-.5-.02h-.5v-.5h1z" fill="#666"/><path d="M474.6 1170.42l-.87.5-9.75-16.48-9.75 16.5-.86-.52 10.6-17.95z" fill="#666"/><g><use xlink:href="#H" transform="matrix(1,0,0,1,424.35277453864643,1203.605034644197) translate(0.005000000000002558 10.666666666666668)"/></g><defs><path fill="#666" d="M30-248c87 1 191-15 191 75 0 78-77 80-158 76V0H30v-248zm33 125c57 0 124 11 124-50 0-59-68-47-124-48v98" id="ai"/><path fill="#666" d="M24 0v-261h32V0H24" id="aj"/><path fill="#666" d="M141-36C126-15 110 5 73 4 37 3 15-17 15-53c-1-64 63-63 125-63 3-35-9-54-41-54-24 1-41 7-42 31l-33-3c5-37 33-52 76-52 45 0 72 20 72 64v82c-1 20 7 32 28 27v20c-31 9-61-2-59-35zM48-53c0 20 12 33 32 33 41-3 63-29 60-74-43 2-92-5-92 41" id="ak"/><path fill="#666" d="M179-190L93 31C79 59 56 82 12 73V49c39 6 53-20 64-50L1-190h34L92-34l54-156h33" id="al"/><path fill="#666" d="M100-194c63 0 86 42 84 106H49c0 40 14 67 53 68 26 1 43-12 49-29l28 8c-11 28-37 45-77 45C44 4 14-33 15-96c1-61 26-98 85-98zm52 81c6-60-76-77-97-28-3 7-6 17-6 28h103" id="am"/><path fill="#666" d="M114-163C36-179 61-72 57 0H25l-1-190h30c1 12-1 29 2 39 6-27 23-49 58-41v29" id="an"/><g id="a"><use transform="matrix(0.04320987654320988,0,0,0.04320987654320988,0,0)" xlink:href="#ai"/><use transform="matrix(0.04320987654320988,0,0,0.04320987654320988,10.370370370370372,0)" xlink:href="#aj"/><use transform="matrix(0.04320987654320988,0,0,0.04320987654320988,13.783950617283953,0)" xlink:href="#ak"/><use transform="matrix(0.04320987654320988,0,0,0.04320987654320988,22.425925925925934,0)" xlink:href="#al"/><use transform="matrix(0.04320987654320988,0,0,0.04320987654320988,30.203703703703713,0)" xlink:href="#am"/><use transform="matrix(0.04320987654320988,0,0,0.04320987654320988,38.845679012345684,0)" xlink:href="#an"/></g><path fill="#fff" d="M212-179c-10-28-35-45-73-45-59 0-87 40-87 99 0 60 29 101 89 101 43 0 62-24 78-52l27 14C228-24 195 4 139 4 59 4 22-46 18-125c-6-104 99-153 187-111 19 9 31 26 39 46" id="ao"/><path fill="#fff" d="M114-163C36-179 61-72 57 0H25l-1-190h30c1 12-1 29 2 39 6-27 23-49 58-41v29" id="ap"/><path fill="#fff" d="M24-231v-30h32v30H24zM24 0v-190h32V0H24" id="aq"/><path fill="#fff" d="M141-36C126-15 110 5 73 4 37 3 15-17 15-53c-1-64 63-63 125-63 3-35-9-54-41-54-24 1-41 7-42 31l-33-3c5-37 33-52 76-52 45 0 72 20 72 64v82c-1 20 7 32 28 27v20c-31 9-61-2-59-35zM48-53c0 20 12 33 32 33 41-3 63-29 60-74-43 2-92-5-92 41" id="ar"/><g id="b"><use transform="matrix(0.04320987654320988,0,0,0.04320987654320988,0,0)" xlink:href="#ao"/><use transform="matrix(0.04320987654320988,0,0,0.04320987654320988,11.19135802469136,0)" xlink:href="#ap"/><use transform="matrix(0.04320987654320988,0,0,0.04320987654320988,16.333333333333336,0)" xlink:href="#aq"/><use transform="matrix(0.04320987654320988,0,0,0.04320987654320988,19.74691358024692,0)" xlink:href="#ar"/><use transform="matrix(0.04320987654320988,0,0,0.04320987654320988,28.388888888888893,0)" xlink:href="#ap"/></g><path fill="#fff" d="M100-194c62-1 85 37 85 99 1 63-27 99-86 99S16-35 15-95c0-66 28-99 85-99zM99-20c44 1 53-31 53-75 0-43-8-75-51-75s-53 32-53 75 10 74 51 75" id="as"/><path fill="#fff" d="M117-194c89-4 53 116 60 194h-32v-121c0-31-8-49-39-48C34-167 62-67 57 0H25l-1-190h30c1 10-1 24 2 32 11-22 29-35 61-36" id="at"/><path fill="#fff" d="M59-47c-2 24 18 29 38 22v24C64 9 27 4 27-40v-127H5v-23h24l9-43h21v43h35v23H59v120" id="au"/><g id="c"><use transform="matrix(0.04320987654320988,0,0,0.04320987654320988,0,0)" xlink:href="#ao"/><use transform="matrix(0.04320987654320988,0,0,0.04320987654320988,11.19135802469136,0)" xlink:href="#as"/><use transform="matrix(0.04320987654320988,0,0,0.04320987654320988,19.833333333333336,0)" xlink:href="#at"/><use transform="matrix(0.04320987654320988,0,0,0.04320987654320988,28.47530864197531,0)" xlink:href="#au"/><use transform="matrix(0.04320987654320988,0,0,0.04320987654320988,32.7962962962963,0)" xlink:href="#ar"/></g><path fill="#fff" d="M137 0h-34L2-248h35l83 218 83-218h36" id="av"/><path fill="#fff" d="M24 0v-261h32V0H24" id="aw"/><path fill="#fff" d="M85-194c31 0 48 13 60 33l-1-100h32l1 261h-30c-2-10 0-23-3-31C134-8 116 4 85 4 32 4 16-35 15-94c0-66 23-100 70-100zm9 24c-40 0-46 34-46 75 0 40 6 74 45 74 42 0 51-32 51-76 0-42-9-74-50-73" id="ax"/><g id="d"><use transform="matrix(0.04320987654320988,0,0,0.04320987654320988,0,0)" xlink:href="#av"/><use transform="matrix(0.04320987654320988,0,0,0.04320987654320988,9.203703703703706,0)" xlink:href="#ar"/><use transform="matrix(0.04320987654320988,0,0,0.04320987654320988,17.845679012345684,0)" xlink:href="#aw"/><use transform="matrix(0.04320987654320988,0,0,0.04320987654320988,21.259259259259267,0)" xlink:href="#aq"/><use transform="matrix(0.04320987654320988,0,0,0.04320987654320988,24.672839506172846,0)" xlink:href="#ax"/><use transform="matrix(0.04320987654320988,0,0,0.04320987654320988,33.314814814814824,0)" xlink:href="#ar"/><use transform="matrix(0.04320987654320988,0,0,0.04320987654320988,41.9567901234568,0)" xlink:href="#ap"/></g><path fill="#fff" d="M210-169c-67 3-38 105-44 169h-31v-121c0-29-5-50-35-48C34-165 62-65 56 0H25l-1-190h30c1 10-1 24 2 32 10-44 99-50 107 0 11-21 27-35 58-36 85-2 47 119 55 194h-31v-121c0-29-5-49-35-48" id="ay"/><path fill="#fff" d="M115-194c55 1 70 41 70 98S169 2 115 4C84 4 66-9 55-30l1 105H24l-1-265h31l2 30c10-21 28-34 59-34zm-8 174c40 0 45-34 45-75s-6-73-45-74c-42 0-51 32-51 76 0 43 10 73 51 73" id="az"/><path fill="#fff" d="M135-143c-3-34-86-38-87 0 15 53 115 12 119 90S17 21 10-45l28-5c4 36 97 45 98 0-10-56-113-15-118-90-4-57 82-63 122-42 12 7 21 19 24 35" id="aA"/><g id="e"><use transform="matrix(0.04320987654320988,0,0,0.04320987654320988,0,0)" xlink:href="#ao"/><use transform="matrix(0.04320987654320988,0,0,0.04320987654320988,11.19135802469136,0)" xlink:href="#ar"/><use transform="matrix(0.04320987654320988,0,0,0.04320987654320988,19.833333333333336,0)" xlink:href="#ay"/><use transform="matrix(0.04320987654320988,0,0,0.04320987654320988,32.75308641975309,0)" xlink:href="#az"/><use transform="matrix(0.04320987654320988,0,0,0.04320987654320988,41.39506172839506,0)" xlink:href="#as"/><use transform="matrix(0.04320987654320988,0,0,0.04320987654320988,50.037037037037045,0)" xlink:href="#aA"/></g><path fill="#fff" d="M30 0v-248h187v28H63v79h144v27H63v87h162V0H30" id="aB"/><g id="f"><use transform="matrix(0.04320987654320988,0,0,0.04320987654320988,0,0)" xlink:href="#aB"/><use transform="matrix(0.04320987654320988,0,0,0.04320987654320988,10.370370370370372,0)" xlink:href="#at"/><use transform="matrix(0.04320987654320988,0,0,0.04320987654320988,19.01234567901235,0)" xlink:href="#au"/><use transform="matrix(0.04320987654320988,0,0,0.04320987654320988,23.333333333333336,0)" xlink:href="#ap"/><use transform="matrix(0.04320987654320988,0,0,0.04320987654320988,28.47530864197531,0)" xlink:href="#ar"/><use transform="matrix(0.04320987654320988,0,0,0.04320987654320988,37.117283950617285,0)" xlink:href="#ap"/></g><g id="g"><use transform="matrix(0.04320987654320988,0,0,0.04320987654320988,0,0)" xlink:href="#at"/><use transform="matrix(0.04320987654320988,0,0,0.04320987654320988,8.641975308641976,0)" xlink:href="#ar"/></g><path fill="#fff" d="M96-169c-40 0-48 33-48 73s9 75 48 75c24 0 41-14 43-38l32 2c-6 37-31 61-74 61-59 0-76-41-82-99-10-93 101-131 147-64 4 7 5 14 7 22l-32 3c-4-21-16-35-41-35" id="aC"/><g id="h"><use transform="matrix(0.04320987654320988,0,0,0.04320987654320988,0,0)" xlink:href="#aC"/><use transform="matrix(0.04320987654320988,0,0,0.04320987654320988,7.777777777777779,0)" xlink:href="#as"/><use transform="matrix(0.04320987654320988,0,0,0.04320987654320988,16.419753086419753,0)" xlink:href="#at"/><use transform="matrix(0.04320987654320988,0,0,0.04320987654320988,25.061728395061728,0)" xlink:href="#au"/><use transform="matrix(0.04320987654320988,0,0,0.04320987654320988,29.382716049382715,0)" xlink:href="#ar"/></g><path fill="#666" d="M18-100v-36l175-74v27L42-118l151 64v27" id="aD"/><path fill="#666" d="M24-231v-30h32v30H24zM24 0v-190h32V0H24" id="aE"/><path fill="#666" d="M117-194c89-4 53 116 60 194h-32v-121c0-31-8-49-39-48C34-167 62-67 57 0H25l-1-190h30c1 10-1 24 2 32 11-22 29-35 61-36" id="aF"/><path fill="#666" d="M96-169c-40 0-48 33-48 73s9 75 48 75c24 0 41-14 43-38l32 2c-6 37-31 61-74 61-59 0-76-41-82-99-10-93 101-131 147-64 4 7 5 14 7 22l-32 3c-4-21-16-35-41-35" id="aG"/><path fill="#666" d="M84 4C-5 8 30-112 23-190h32v120c0 31 7 50 39 49 72-2 45-101 50-169h31l1 190h-30c-1-10 1-25-2-33-11 22-28 36-60 37" id="aH"/><path fill="#666" d="M85-194c31 0 48 13 60 33l-1-100h32l1 261h-30c-2-10 0-23-3-31C134-8 116 4 85 4 32 4 16-35 15-94c0-66 23-100 70-100zm9 24c-40 0-46 34-46 75 0 40 6 74 45 74 42 0 51-32 51-76 0-42-9-74-50-73" id="aI"/><path fill="#666" d="M18-27v-27l151-64-151-65v-27l175 74v36" id="aJ"/><g id="i"><use transform="matrix(0.03703703703703704,0,0,0.03703703703703704,0,0)" xlink:href="#aD"/><use transform="matrix(0.03703703703703704,0,0,0.03703703703703704,7.777777777777779,0)" xlink:href="#aD"/><use transform="matrix(0.03703703703703704,0,0,0.03703703703703704,15.555555555555557,0)" xlink:href="#aE"/><use transform="matrix(0.03703703703703704,0,0,0.03703703703703704,18.481481481481485,0)" xlink:href="#aF"/><use transform="matrix(0.03703703703703704,0,0,0.03703703703703704,25.888888888888893,0)" xlink:href="#aG"/><use transform="matrix(0.03703703703703704,0,0,0.03703703703703704,32.55555555555556,0)" xlink:href="#aj"/><use transform="matrix(0.03703703703703704,0,0,0.03703703703703704,35.48148148148148,0)" xlink:href="#aH"/><use transform="matrix(0.03703703703703704,0,0,0.03703703703703704,42.888888888888886,0)" xlink:href="#aI"/><use transform="matrix(0.03703703703703704,0,0,0.03703703703703704,50.2962962962963,0)" xlink:href="#am"/><use transform="matrix(0.03703703703703704,0,0,0.03703703703703704,57.703703703703695,0)" xlink:href="#aJ"/><use transform="matrix(0.03703703703703704,0,0,0.03703703703703704,65.48148148148147,0)" xlink:href="#aJ"/></g><path fill="#b2b2b2" d="M238-95c0 69-44 99-111 99C63 4 22-25 22-93v-155h51v151c-1 38 19 59 55 60 90 1 49-130 58-211h52v153" id="aK"/><path fill="#b2b2b2" d="M230 0l2-204L168 0h-37L68-204 70 0H24v-248h70l56 185 57-185h69V0h-46" id="aL"/><path fill="#b2b2b2" d="M24 0v-248h52v208h133V0H24" id="aM"/><g id="j"><use transform="matrix(0.07407407407407408,0,0,0.07407407407407408,0,0)" xlink:href="#aK"/><use transform="matrix(0.07407407407407408,0,0,0.07407407407407408,19.185185185185187,0)" xlink:href="#aL"/><use transform="matrix(0.07407407407407408,0,0,0.07407407407407408,41.333333333333336,0)" xlink:href="#aM"/></g><path fill="#b2b2b2" d="M24-248c120-7 223 5 221 122C244-46 201 0 124 0H24v-248zM76-40c74 7 117-18 117-86 0-67-45-88-117-82v168" id="aN"/><path fill="#b2b2b2" d="M25-224v-37h50v37H25zM25 0v-190h50V0H25" id="aO"/><path fill="#b2b2b2" d="M133-34C117-15 103 5 69 4 32 3 11-16 11-54c-1-60 55-63 116-61 1-26-3-47-28-47-18 1-26 9-28 27l-52-2c7-38 36-58 82-57s74 22 75 68l1 82c-1 14 12 18 25 15v27c-30 8-71 5-69-32zm-48 3c29 0 43-24 42-57-32 0-66-3-65 30 0 17 8 27 23 27" id="aP"/><path fill="#b2b2b2" d="M195-6C206 82 75 100 31 46c-4-6-6-13-8-21l49-6c3 16 16 24 34 25 40 0 42-37 40-79-11 22-30 35-61 35-53 0-70-43-70-97 0-56 18-96 73-97 30 0 46 14 59 34l2-30h47zm-90-29c32 0 41-27 41-63 0-35-9-62-40-62-32 0-39 29-40 63 0 36 9 62 39 62" id="aQ"/><path fill="#b2b2b2" d="M135-150c-39-12-60 13-60 57V0H25l-1-190h47c2 13-1 29 3 40 6-28 27-53 61-41v41" id="aR"/><path fill="#b2b2b2" d="M220-157c-53 9-28 100-34 157h-49v-107c1-27-5-49-29-50C55-147 81-57 75 0H25l-1-190h47c2 12-1 28 3 38 10-53 101-56 108 0 13-22 24-43 59-42 82 1 51 116 57 194h-49v-107c-1-25-5-48-29-50" id="aS"/><g id="k"><use transform="matrix(0.07407407407407408,0,0,0.07407407407407408,0,0)" xlink:href="#aN"/><use transform="matrix(0.07407407407407408,0,0,0.07407407407407408,19.185185185185187,0)" xlink:href="#aO"/><use transform="matrix(0.07407407407407408,0,0,0.07407407407407408,26.592592592592595,0)" xlink:href="#aP"/><use transform="matrix(0.07407407407407408,0,0,0.07407407407407408,41.40740740740741,0)" xlink:href="#aQ"/><use transform="matrix(0.07407407407407408,0,0,0.07407407407407408,57.62962962962964,0)" xlink:href="#aR"/><use transform="matrix(0.07407407407407408,0,0,0.07407407407407408,68,0)" xlink:href="#aP"/><use transform="matrix(0.07407407407407408,0,0,0.07407407407407408,82.81481481481481,0)" xlink:href="#aS"/><use transform="matrix(0.07407407407407408,0,0,0.07407407407407408,106.51851851851852,0)" xlink:href="#aP"/></g><path fill="#b2b2b2" d="M88-194c31-1 46 15 58 34l-1-101h50l1 261h-48c-2-10 0-23-3-31C134-8 116 4 84 4 32 4 16-41 15-95c0-56 19-97 73-99zm17 164c33 0 40-30 41-66 1-37-9-64-41-64s-38 30-39 65c0 43 13 65 39 65" id="aT"/><path fill="#b2b2b2" d="M185-48c-13 30-37 53-82 52C43 2 14-33 14-96s30-98 90-98c62 0 83 45 84 108H66c0 31 8 55 39 56 18 0 30-7 34-22zm-45-69c5-46-57-63-70-21-2 6-4 13-4 21h74" id="aU"/><g id="l"><use transform="matrix(0.07407407407407408,0,0,0.07407407407407408,0,0)" xlink:href="#aT"/><use transform="matrix(0.07407407407407408,0,0,0.07407407407407408,16.222222222222225,0)" xlink:href="#aU"/></g><path fill="#b2b2b2" d="M67-125c0 53 21 87 73 88 37 1 54-22 65-47l45 17C233-25 199 4 140 4 58 4 20-42 15-125 8-235 124-281 211-232c18 10 29 29 36 50l-46 12c-8-25-30-41-62-41-52 0-71 34-72 86" id="aV"/><path fill="#b2b2b2" d="M137-138c1-29-70-34-71-4 15 46 118 7 119 86 1 83-164 76-172 9l43-7c4 19 20 25 44 25 33 8 57-30 24-41C81-84 22-81 20-136c-2-80 154-74 161-7" id="aW"/><path fill="#b2b2b2" d="M110-194c64 0 96 36 96 99 0 64-35 99-97 99-61 0-95-36-95-99 0-62 34-99 96-99zm-1 164c35 0 45-28 45-65 0-40-10-65-43-65-34 0-45 26-45 65 0 36 10 65 43 65" id="aX"/><g id="m"><use transform="matrix(0.07407407407407408,0,0,0.07407407407407408,0,0)" xlink:href="#aV"/><use transform="matrix(0.07407407407407408,0,0,0.07407407407407408,19.185185185185187,0)" xlink:href="#aP"/><use transform="matrix(0.07407407407407408,0,0,0.07407407407407408,34,0)" xlink:href="#aW"/><use transform="matrix(0.07407407407407408,0,0,0.07407407407407408,48.81481481481481,0)" xlink:href="#aX"/><use transform="matrix(0.07407407407407408,0,0,0.07407407407407408,65.03703703703704,0)" xlink:href="#aW"/></g><g id="n"><use transform="matrix(0.07407407407407408,0,0,0.07407407407407408,0,0)" xlink:href="#aK"/><use transform="matrix(0.07407407407407408,0,0,0.07407407407407408,19.185185185185187,0)" xlink:href="#aW"/><use transform="matrix(0.07407407407407408,0,0,0.07407407407407408,34,0)" xlink:href="#aX"/></g><path fill="#b2b2b2" d="M101-251c82-7 93 87 43 132L82-64C71-53 59-42 53-27h129V0H18c2-99 128-94 128-182 0-28-16-43-45-43s-46 15-49 41l-32-3c6-41 34-60 81-64" id="aY"/><path fill="#b2b2b2" d="M101-251c68 0 85 55 85 127S166 4 100 4C33 4 14-52 14-124c0-73 17-127 87-127zm-1 229c47 0 54-49 54-102s-4-102-53-102c-51 0-55 48-55 102 0 53 5 102 54 102" id="aZ"/><g id="p"><use transform="matrix(0.04320987654320988,0,0,0.04320987654320988,0,0)" xlink:href="#aY"/><use transform="matrix(0.04320987654320988,0,0,0.04320987654320988,8.641975308641976,0)" xlink:href="#aZ"/></g><path fill="#b2b2b2" d="M85-194c31 0 48 13 60 33l-1-100h32l1 261h-30c-2-10 0-23-3-31C134-8 116 4 85 4 32 4 16-35 15-94c0-66 23-100 70-100zm9 24c-40 0-46 34-46 75 0 40 6 74 45 74 42 0 51-32 51-76 0-42-9-74-50-73" id="ba"/><path fill="#b2b2b2" d="M100-194c63 0 86 42 84 106H49c0 40 14 67 53 68 26 1 43-12 49-29l28 8c-11 28-37 45-77 45C44 4 14-33 15-96c1-61 26-98 85-98zm52 81c6-60-76-77-97-28-3 7-6 17-6 28h103" id="bb"/><g id="q"><use transform="matrix(0.04320987654320988,0,0,0.04320987654320988,0,0)" xlink:href="#ba"/><use transform="matrix(0.04320987654320988,0,0,0.04320987654320988,8.641975308641976,0)" xlink:href="#bb"/></g><path fill="#b2b2b2" d="M205 0l-28-72H64L36 0H1l101-248h38L239 0h-34zm-38-99l-47-123c-12 45-31 82-46 123h93" id="bc"/><path fill="#b2b2b2" d="M115-194c53 0 69 39 70 98 0 66-23 100-70 100C84 3 66-7 56-30L54 0H23l1-261h32v101c10-23 28-34 59-34zm-8 174c40 0 45-34 45-75 0-40-5-75-45-74-42 0-51 32-51 76 0 43 10 73 51 73" id="bd"/><path fill="#b2b2b2" d="M114-163C36-179 61-72 57 0H25l-1-190h30c1 12-1 29 2 39 6-27 23-49 58-41v29" id="be"/><path fill="#b2b2b2" d="M24-231v-30h32v30H24zM24 0v-190h32V0H24" id="bf"/><path fill="#b2b2b2" d="M24 0v-261h32V0H24" id="bg"/><g id="r"><use transform="matrix(0.04320987654320988,0,0,0.04320987654320988,0,0)" xlink:href="#bc"/><use transform="matrix(0.04320987654320988,0,0,0.04320987654320988,10.370370370370372,0)" xlink:href="#bd"/><use transform="matrix(0.04320987654320988,0,0,0.04320987654320988,19.01234567901235,0)" xlink:href="#be"/><use transform="matrix(0.04320987654320988,0,0,0.04320987654320988,24.154320987654323,0)" xlink:href="#bf"/><use transform="matrix(0.04320987654320988,0,0,0.04320987654320988,27.567901234567906,0)" xlink:href="#bg"/></g><path fill="#b2b2b2" d="M27 0v-27h64v-190l-56 39v-29l58-41h29v221h61V0H27" id="bh"/><path fill="#b2b2b2" d="M99-251c64 0 84 50 84 122C183-37 130 33 47-8c-14-7-20-23-25-40l30-5c6 39 69 39 84 7 9-19 16-44 16-74-10 22-31 35-62 35-49 0-73-33-73-83 0-54 28-83 82-83zm-1 141c31-1 51-18 51-49 0-36-14-67-51-67-34 0-49 23-49 58 0 34 15 58 49 58" id="bi"/><g id="s"><use transform="matrix(0.04320987654320988,0,0,0.04320987654320988,0,0)" xlink:href="#aY"/><use transform="matrix(0.04320987654320988,0,0,0.04320987654320988,8.641975308641976,0)" xlink:href="#aZ"/><use transform="matrix(0.04320987654320988,0,0,0.04320987654320988,17.283950617283953,0)" xlink:href="#bh"/><use transform="matrix(0.04320987654320988,0,0,0.04320987654320988,25.925925925925927,0)" xlink:href="#bi"/></g><path fill="#b2b2b2" d="M32 76v-337h29V76H32" id="bj"/><use transform="matrix(0.04320987654320988,0,0,0.04320987654320988,0,0)" xlink:href="#bj" id="t"/><path fill="#b2b2b2" d="M30-248c87 1 191-15 191 75 0 78-77 80-158 76V0H30v-248zm33 125c57 0 124 11 124-50 0-59-68-47-124-48v98" id="bk"/><path fill="#b2b2b2" d="M59-47c-2 24 18 29 38 22v24C64 9 27 4 27-40v-127H5v-23h24l9-43h21v43h35v23H59v120" id="bl"/><g id="u"><use transform="matrix(0.04320987654320988,0,0,0.04320987654320988,0,0)" xlink:href="#bk"/><use transform="matrix(0.04320987654320988,0,0,0.04320987654320988,10.370370370370372,0)" xlink:href="#be"/><use transform="matrix(0.04320987654320988,0,0,0.04320987654320988,15.512345679012347,0)" xlink:href="#bb"/><use transform="matrix(0.04320987654320988,0,0,0.04320987654320988,24.154320987654323,0)" xlink:href="#bl"/></g><path fill="#b2b2b2" d="M30 0v-248h187v28H63v79h144v27H63v87h162V0H30" id="bm"/><path fill="#b2b2b2" d="M108 0H70L1-190h34L89-25l56-165h34" id="bn"/><path fill="#b2b2b2" d="M117-194c89-4 53 116 60 194h-32v-121c0-31-8-49-39-48C34-167 62-67 57 0H25l-1-190h30c1 10-1 24 2 32 11-22 29-35 61-36" id="bo"/><g id="v"><use transform="matrix(0.04320987654320988,0,0,0.04320987654320988,0,0)" xlink:href="#bm"/><use transform="matrix(0.04320987654320988,0,0,0.04320987654320988,10.370370370370372,0)" xlink:href="#bn"/><use transform="matrix(0.04320987654320988,0,0,0.04320987654320988,18.148148148148152,0)" xlink:href="#bb"/><use transform="matrix(0.04320987654320988,0,0,0.04320987654320988,26.790123456790127,0)" xlink:href="#bo"/><use transform="matrix(0.04320987654320988,0,0,0.04320987654320988,35.4320987654321,0)" xlink:href="#bl"/></g><path fill="#666" d="M59-47c-2 24 18 29 38 22v24C64 9 27 4 27-40v-127H5v-23h24l9-43h21v43h35v23H59v120" id="bp"/><path fill="#666" d="M101-234c-31-9-42 10-38 44h38v23H63V0H32v-167H5v-23h27c-7-52 17-82 69-68v24" id="bq"/><path fill="#666" d="M100-194c62-1 85 37 85 99 1 63-27 99-86 99S16-35 15-95c0-66 28-99 85-99zM99-20c44 1 53-31 53-75 0-43-8-75-51-75s-53 32-53 75 10 74 51 75" id="br"/><path fill="#666" d="M210-169c-67 3-38 105-44 169h-31v-121c0-29-5-50-35-48C34-165 62-65 56 0H25l-1-190h30c1 10-1 24 2 32 10-44 99-50 107 0 11-21 27-35 58-36 85-2 47 119 55 194h-31v-121c0-29-5-49-35-48" id="bs"/><g id="w"><use transform="matrix(0.04454626447753596,0,0,0.04454626447753596,0,0)" xlink:href="#ai"/><use transform="matrix(0.04454626447753596,0,0,0.04454626447753596,10.69110347460863,0)" xlink:href="#aj"/><use transform="matrix(0.04454626447753596,0,0,0.04454626447753596,14.210258368333971,0)" xlink:href="#ak"/><use transform="matrix(0.04454626447753596,0,0,0.04454626447753596,23.11951126384116,0)" xlink:href="#bp"/><use transform="matrix(0.04454626447753596,0,0,0.04454626447753596,27.57413771159476,0)" xlink:href="#ak"/><use transform="matrix(0.04454626447753596,0,0,0.04454626447753596,36.48339060710195,0)" xlink:href="#bq"/><use transform="matrix(0.04454626447753596,0,0,0.04454626447753596,40.93801705485555,0)" xlink:href="#br"/><use transform="matrix(0.04454626447753596,0,0,0.04454626447753596,49.847269950362744,0)" xlink:href="#an"/><use transform="matrix(0.04454626447753596,0,0,0.04454626447753596,55.148275423189524,0)" xlink:href="#bs"/><use transform="matrix(0.04454626447753596,0,0,0.04454626447753596,68.46760850197278,0)" xlink:href="#ak"/></g><g id="x"><use transform="matrix(0.04454626447753596,0,0,0.04454626447753596,0,0)" xlink:href="#ai"/><use transform="matrix(0.04454626447753596,0,0,0.04454626447753596,10.69110347460863,0)" xlink:href="#an"/><use transform="matrix(0.04454626447753596,0,0,0.04454626447753596,15.992108947435408,0)" xlink:href="#am"/><use transform="matrix(0.04454626447753596,0,0,0.04454626447753596,24.9013618429426,0)" xlink:href="#bp"/></g><path fill="#666" d="M30 0v-248h187v28H63v79h144v27H63v87h162V0H30" id="bt"/><path fill="#666" d="M108 0H70L1-190h34L89-25l56-165h34" id="bu"/><g id="y"><use transform="matrix(0.04454626447753596,0,0,0.04454626447753596,0,0)" xlink:href="#bt"/><use transform="matrix(0.04454626447753596,0,0,0.04454626447753596,10.69110347460863,0)" xlink:href="#bu"/><use transform="matrix(0.04454626447753596,0,0,0.04454626447753596,18.709431080565103,0)" xlink:href="#am"/><use transform="matrix(0.04454626447753596,0,0,0.04454626447753596,27.618683976072294,0)" xlink:href="#aF"/><use transform="matrix(0.04454626447753596,0,0,0.04454626447753596,36.527936871579485,0)" xlink:href="#bp"/></g><path fill="#fff" d="M30-248c87 1 191-15 191 75 0 78-77 80-158 76V0H30v-248zm33 125c57 0 124 11 124-50 0-59-68-47-124-48v98" id="bv"/><g id="z"><use transform="matrix(0.04320987654320988,0,0,0.04320987654320988,0,0)" xlink:href="#bv"/><use transform="matrix(0.04320987654320988,0,0,0.04320987654320988,10.370370370370372,0)" xlink:href="#ar"/><use transform="matrix(0.04320987654320988,0,0,0.04320987654320988,19.01234567901235,0)" xlink:href="#ap"/><use transform="matrix(0.04320987654320988,0,0,0.04320987654320988,24.154320987654323,0)" xlink:href="#au"/><use transform="matrix(0.04320987654320988,0,0,0.04320987654320988,28.47530864197531,0)" xlink:href="#aq"/><use transform="matrix(0.04320987654320988,0,0,0.04320987654320988,31.888888888888893,0)" xlink:href="#aC"/><use transform="matrix(0.04320987654320988,0,0,0.04320987654320988,39.66666666666667,0)" xlink:href="#aq"/><use transform="matrix(0.04320987654320988,0,0,0.04320987654320988,43.080246913580254,0)" xlink:href="#az"/><use transform="matrix(0.04320987654320988,0,0,0.04320987654320988,51.72222222222223,0)" xlink:href="#ar"/><use transform="matrix(0.04320987654320988,0,0,0.04320987654320988,60.3641975308642,0)" xlink:href="#ap"/></g><path fill="#fff" d="M30-248c118-7 216 8 213 122C240-48 200 0 122 0H30v-248zM63-27c89 8 146-16 146-99s-60-101-146-95v194" id="bw"/><path fill="#fff" d="M100-194c63 0 86 42 84 106H49c0 40 14 67 53 68 26 1 43-12 49-29l28 8c-11 28-37 45-77 45C44 4 14-33 15-96c1-61 26-98 85-98zm52 81c6-60-76-77-97-28-3 7-6 17-6 28h103" id="bx"/><g id="A"><use transform="matrix(0.04320987654320988,0,0,0.04320987654320988,0,0)" xlink:href="#bw"/><use transform="matrix(0.04320987654320988,0,0,0.04320987654320988,11.19135802469136,0)" xlink:href="#bx"/></g><path fill="#fff" d="M108 0H70L1-190h34L89-25l56-165h34" id="by"/><g id="B"><use transform="matrix(0.04320987654320988,0,0,0.04320987654320988,0,0)" xlink:href="#aB"/><use transform="matrix(0.04320987654320988,0,0,0.04320987654320988,10.370370370370372,0)" xlink:href="#by"/><use transform="matrix(0.04320987654320988,0,0,0.04320987654320988,18.148148148148152,0)" xlink:href="#bx"/><use transform="matrix(0.04320987654320988,0,0,0.04320987654320988,26.790123456790127,0)" xlink:href="#at"/><use transform="matrix(0.04320987654320988,0,0,0.04320987654320988,35.4320987654321,0)" xlink:href="#au"/><use transform="matrix(0.04320987654320988,0,0,0.04320987654320988,39.75308641975309,0)" xlink:href="#as"/><use transform="matrix(0.04320987654320988,0,0,0.04320987654320988,48.39506172839506,0)" xlink:href="#aA"/></g><g id="C"><use transform="matrix(0.04320987654320988,0,0,0.04320987654320988,0,0)" xlink:href="#ao"/><use transform="matrix(0.04320987654320988,0,0,0.04320987654320988,11.19135802469136,0)" xlink:href="#ap"/><use transform="matrix(0.04320987654320988,0,0,0.04320987654320988,16.333333333333336,0)" xlink:href="#aq"/><use transform="matrix(0.04320987654320988,0,0,0.04320987654320988,19.74691358024692,0)" xlink:href="#ar"/><use transform="matrix(0.04320987654320988,0,0,0.04320987654320988,28.388888888888893,0)" xlink:href="#ap"/></g><g id="D"><use transform="matrix(0.03703703703703704,0,0,0.03703703703703704,0,0)" xlink:href="#aD"/><use transform="matrix(0.03703703703703704,0,0,0.03703703703703704,7.777777777777779,0)" xlink:href="#aD"/><use transform="matrix(0.03703703703703704,0,0,0.03703703703703704,15.555555555555557,0)" xlink:href="#aE"/><use transform="matrix(0.03703703703703704,0,0,0.03703703703703704,18.481481481481485,0)" xlink:href="#aF"/><use transform="matrix(0.03703703703703704,0,0,0.03703703703703704,25.888888888888893,0)" xlink:href="#aG"/><use transform="matrix(0.03703703703703704,0,0,0.03703703703703704,32.55555555555556,0)" xlink:href="#aj"/><use transform="matrix(0.03703703703703704,0,0,0.03703703703703704,35.48148148148148,0)" xlink:href="#aH"/><use transform="matrix(0.03703703703703704,0,0,0.03703703703703704,42.888888888888886,0)" xlink:href="#aI"/><use transform="matrix(0.03703703703703704,0,0,0.03703703703703704,50.2962962962963,0)" xlink:href="#am"/><use transform="matrix(0.03703703703703704,0,0,0.03703703703703704,57.703703703703695,0)" xlink:href="#aJ"/><use transform="matrix(0.03703703703703704,0,0,0.03703703703703704,65.48148148148147,0)" xlink:href="#aJ"/></g><path fill="#fff" d="M233-177c-1 41-23 64-60 70L243 0h-38l-65-103H63V0H30v-248c88 3 205-21 203 71zM63-129c60-2 137 13 137-47 0-61-80-42-137-45v92" id="bz"/><path fill="#fff" d="M177-190C167-65 218 103 67 71c-23-6-38-20-44-43l32-5c15 47 100 32 89-28v-30C133-14 115 1 83 1 29 1 15-40 15-95c0-56 16-97 71-98 29-1 48 16 59 35 1-10 0-23 2-32h30zM94-22c36 0 50-32 50-73 0-42-14-75-50-75-39 0-46 34-46 75s6 73 46 73" id="bA"/><g id="E"><use transform="matrix(0.04320987654320988,0,0,0.04320987654320988,0,0)" xlink:href="#bz"/><use transform="matrix(0.04320987654320988,0,0,0.04320987654320988,11.19135802469136,0)" xlink:href="#bx"/><use transform="matrix(0.04320987654320988,0,0,0.04320987654320988,19.833333333333336,0)" xlink:href="#aA"/><use transform="matrix(0.04320987654320988,0,0,0.04320987654320988,27.611111111111114,0)" xlink:href="#bA"/><use transform="matrix(0.04320987654320988,0,0,0.04320987654320988,36.25308641975309,0)" xlink:href="#ar"/><use transform="matrix(0.04320987654320988,0,0,0.04320987654320988,44.89506172839506,0)" xlink:href="#au"/><use transform="matrix(0.04320987654320988,0,0,0.04320987654320988,49.21604938271606,0)" xlink:href="#ar"/><use transform="matrix(0.04320987654320988,0,0,0.04320987654320988,57.85802469135802,0)" xlink:href="#ap"/></g><g id="F"><use transform="matrix(0.04320987654320988,0,0,0.04320987654320988,0,0)" xlink:href="#bz"/><use transform="matrix(0.04320987654320988,0,0,0.04320987654320988,11.19135802469136,0)" xlink:href="#bx"/><use transform="matrix(0.04320987654320988,0,0,0.04320987654320988,19.833333333333336,0)" xlink:href="#aC"/><use transform="matrix(0.04320987654320988,0,0,0.04320987654320988,27.611111111111114,0)" xlink:href="#as"/><use transform="matrix(0.04320987654320988,0,0,0.04320987654320988,36.25308641975309,0)" xlink:href="#ay"/><use transform="matrix(0.04320987654320988,0,0,0.04320987654320988,49.17283950617284,0)" xlink:href="#az"/><use transform="matrix(0.04320987654320988,0,0,0.04320987654320988,57.814814814814824,0)" xlink:href="#bx"/><use transform="matrix(0.04320987654320988,0,0,0.04320987654320988,66.4567901234568,0)" xlink:href="#at"/><use transform="matrix(0.04320987654320988,0,0,0.04320987654320988,75.09876543209877,0)" xlink:href="#aA"/><use transform="matrix(0.04320987654320988,0,0,0.04320987654320988,82.87654320987656,0)" xlink:href="#ar"/><use transform="matrix(0.04320987654320988,0,0,0.04320987654320988,91.51851851851853,0)" xlink:href="#aA"/></g><path fill="#fff" d="M0 4l72-265h28L28 4H0" id="bB"/><g id="G"><use transform="matrix(0.04320987654320988,0,0,0.04320987654320988,0,0)" xlink:href="#aB"/><use transform="matrix(0.04320987654320988,0,0,0.04320987654320988,10.370370370370372,0)" xlink:href="#ax"/><use transform="matrix(0.04320987654320988,0,0,0.04320987654320988,19.01234567901235,0)" xlink:href="#aq"/><use transform="matrix(0.04320987654320988,0,0,0.04320987654320988,22.425925925925934,0)" xlink:href="#au"/><use transform="matrix(0.04320987654320988,0,0,0.04320987654320988,26.746913580246915,0)" xlink:href="#ar"/><use transform="matrix(0.04320987654320988,0,0,0.04320987654320988,35.38888888888889,0)" xlink:href="#ap"/><use transform="matrix(0.04320987654320988,0,0,0.04320987654320988,40.53086419753087,0)" xlink:href="#bB"/><use transform="matrix(0.04320987654320988,0,0,0.04320987654320988,44.851851851851855,0)" xlink:href="#bw"/><use transform="matrix(0.04320987654320988,0,0,0.04320987654320988,56.043209876543216,0)" xlink:href="#bx"/><use transform="matrix(0.04320987654320988,0,0,0.04320987654320988,64.68518518518519,0)" xlink:href="#aw"/><use transform="matrix(0.04320987654320988,0,0,0.04320987654320988,68.09876543209877,0)" xlink:href="#bx"/><use transform="matrix(0.04320987654320988,0,0,0.04320987654320988,76.74074074074075,0)" xlink:href="#au"/><use transform="matrix(0.04320987654320988,0,0,0.04320987654320988,81.06172839506173,0)" xlink:href="#ar"/><use transform="matrix(0.04320987654320988,0,0,0.04320987654320988,89.70370370370371,0)" xlink:href="#ap"/></g><path fill="#666" d="M141 0L90-78 38 0H4l68-98-65-92h35l48 74 47-74h35l-64 92 68 98h-35" id="bC"/><path fill="#666" d="M135-143c-3-34-86-38-87 0 15 53 115 12 119 90S17 21 10-45l28-5c4 36 97 45 98 0-10-56-113-15-118-90-4-57 82-63 122-42 12 7 21 19 24 35" id="bD"/><g id="H"><use transform="matrix(0.03703703703703704,0,0,0.03703703703703704,0,0)" xlink:href="#aD"/><use transform="matrix(0.03703703703703704,0,0,0.03703703703703704,7.777777777777779,0)" xlink:href="#aD"/><use transform="matrix(0.03703703703703704,0,0,0.03703703703703704,15.555555555555557,0)" xlink:href="#bt"/><use transform="matrix(0.03703703703703704,0,0,0.03703703703703704,24.444444444444446,0)" xlink:href="#bC"/><use transform="matrix(0.03703703703703704,0,0,0.03703703703703704,31.111111111111114,0)" xlink:href="#bp"/><use transform="matrix(0.03703703703703704,0,0,0.03703703703703704,34.81481481481482,0)" xlink:href="#am"/><use transform="matrix(0.03703703703703704,0,0,0.03703703703703704,42.22222222222223,0)" xlink:href="#aF"/><use transform="matrix(0.03703703703703704,0,0,0.03703703703703704,49.62962962962963,0)" xlink:href="#aI"/><use transform="matrix(0.03703703703703704,0,0,0.03703703703703704,57.03703703703704,0)" xlink:href="#bD"/><use transform="matrix(0.03703703703703704,0,0,0.03703703703703704,63.70370370370371,0)" xlink:href="#aJ"/><use transform="matrix(0.03703703703703704,0,0,0.03703703703703704,71.4814814814815,0)" xlink:href="#aJ"/></g><path fill="#fff" d="M115-194c53 0 69 39 70 98 0 66-23 100-70 100C84 3 66-7 56-30L54 0H23l1-261h32v101c10-23 28-34 59-34zm-8 174c40 0 45-34 45-75 0-40-5-75-45-74-42 0-51 32-51 76 0 43 10 73 51 73" id="bE"/><g id="I"><use transform="matrix(0.04320987654320988,0,0,0.04320987654320988,0,0)" xlink:href="#aB"/><use transform="matrix(0.04320987654320988,0,0,0.04320987654320988,10.370370370370372,0)" xlink:href="#aw"/><use transform="matrix(0.04320987654320988,0,0,0.04320987654320988,13.783950617283953,0)" xlink:href="#aq"/><use transform="matrix(0.04320987654320988,0,0,0.04320987654320988,17.19753086419753,0)" xlink:href="#bA"/><use transform="matrix(0.04320987654320988,0,0,0.04320987654320988,25.839506172839503,0)" xlink:href="#aq"/><use transform="matrix(0.04320987654320988,0,0,0.04320987654320988,29.25308641975309,0)" xlink:href="#bE"/><use transform="matrix(0.04320987654320988,0,0,0.04320987654320988,37.89506172839506,0)" xlink:href="#aq"/><use transform="matrix(0.04320987654320988,0,0,0.04320987654320988,41.308641975308646,0)" xlink:href="#aw"/><use transform="matrix(0.04320987654320988,0,0,0.04320987654320988,44.72222222222223,0)" xlink:href="#aq"/><use transform="matrix(0.04320987654320988,0,0,0.04320987654320988,48.13580246913581,0)" xlink:href="#ax"/><use transform="matrix(0.04320987654320988,0,0,0.04320987654320988,56.777777777777786,0)" xlink:href="#ar"/><use transform="matrix(0.04320987654320988,0,0,0.04320987654320988,65.41975308641976,0)" xlink:href="#ax"/><use transform="matrix(0.04320987654320988,0,0,0.04320987654320988,74.06172839506173,0)" xlink:href="#bx"/></g><g id="J"><use transform="matrix(0.04320987654320988,0,0,0.04320987654320988,0,0)" xlink:href="#ao"/><use transform="matrix(0.04320987654320988,0,0,0.04320987654320988,11.19135802469136,0)" xlink:href="#ar"/><use transform="matrix(0.04320987654320988,0,0,0.04320987654320988,19.833333333333336,0)" xlink:href="#at"/><use transform="matrix(0.04320987654320988,0,0,0.04320987654320988,28.47530864197531,0)" xlink:href="#aC"/><use transform="matrix(0.04320987654320988,0,0,0.04320987654320988,36.25308641975309,0)" xlink:href="#bx"/><use transform="matrix(0.04320987654320988,0,0,0.04320987654320988,44.89506172839506,0)" xlink:href="#aw"/><use transform="matrix(0.04320987654320988,0,0,0.04320987654320988,48.308641975308646,0)" xlink:href="#ar"/><use transform="matrix(0.04320987654320988,0,0,0.04320987654320988,56.95061728395062,0)" xlink:href="#ap"/></g><path fill="#fff" d="M96-169c-40 0-48 33-48 73s9 75 48 75c24 0 41-14 43-38l32 2c-6 37-31 61-74 61-59 0-76-41-82-99-10-93 101-131 147-64 4 7 5 14 7 22l-32 3c-4-21-16-35-41-35zm3 187c19-1 33 8 33 26 0 31-30 33-64 32V58c18 2 39 4 41-13 1-15-18-13-34-13L87 0h19" id="bF"/><path fill="#fff" d="M141-36C126-15 110 5 73 4 37 3 15-17 15-53c-1-64 63-63 125-63 3-35-9-54-41-54-24 1-41 7-42 31l-33-3c5-37 33-52 76-52 45 0 72 20 72 64v82c-1 20 7 32 28 27v20c-31 9-61-2-59-35zM48-53c0 20 12 33 32 33 41-3 63-29 60-74-43 2-92-5-92 41zm117-205c-3 23-9 48-36 47-26-1-65-44-74 0H39c4-23 8-48 36-47s64 44 74 0h16" id="bG"/><g id="K"><use transform="matrix(0.04320987654320988,0,0,0.04320987654320988,0,0)" xlink:href="#bv"/><use transform="matrix(0.04320987654320988,0,0,0.04320987654320988,10.370370370370372,0)" xlink:href="#ar"/><use transform="matrix(0.04320987654320988,0,0,0.04320987654320988,19.01234567901235,0)" xlink:href="#ap"/><use transform="matrix(0.04320987654320988,0,0,0.04320987654320988,24.154320987654323,0)" xlink:href="#au"/><use transform="matrix(0.04320987654320988,0,0,0.04320987654320988,28.47530864197531,0)" xlink:href="#aq"/><use transform="matrix(0.04320987654320988,0,0,0.04320987654320988,31.888888888888893,0)" xlink:href="#aC"/><use transform="matrix(0.04320987654320988,0,0,0.04320987654320988,39.66666666666667,0)" xlink:href="#aq"/><use transform="matrix(0.04320987654320988,0,0,0.04320987654320988,43.080246913580254,0)" xlink:href="#az"/><use transform="matrix(0.04320987654320988,0,0,0.04320987654320988,51.72222222222223,0)" xlink:href="#ar"/><use transform="matrix(0.04320987654320988,0,0,0.04320987654320988,60.3641975308642,0)" xlink:href="#bF"/><use transform="matrix(0.04320987654320988,0,0,0.04320987654320988,68.14197530864197,0)" xlink:href="#bG"/><use transform="matrix(0.04320987654320988,0,0,0.04320987654320988,76.78395061728395,0)" xlink:href="#as"/></g><path fill="#666" d="M232-93c-1 65-40 97-104 97C67 4 28-28 28-90v-158h33c8 89-33 224 67 224 102 0 64-133 71-224h33v155" id="bH"/><path fill="#666" d="M141-36C126-15 110 5 73 4 37 3 15-17 15-53c-1-64 63-63 125-63 3-35-9-54-41-54-24 1-41 7-42 31l-33-3c5-37 33-52 76-52 45 0 72 20 72 64v82c-1 20 7 32 28 27v20c-31 9-61-2-59-35zM48-53c0 20 12 33 32 33 41-3 63-29 60-74-43 2-92-5-92 41zm25-158c8-23 27-35 38-54h36v5l-58 49H73" id="bI"/><g id="L"><use transform="matrix(0.04320987654320988,0,0,0.04320987654320988,0,0)" xlink:href="#bH"/><use transform="matrix(0.04320987654320988,0,0,0.04320987654320988,11.19135802469136,0)" xlink:href="#bD"/><use transform="matrix(0.04320987654320988,0,0,0.04320987654320988,18.96913580246914,0)" xlink:href="#aH"/><use transform="matrix(0.04320987654320988,0,0,0.04320987654320988,27.611111111111114,0)" xlink:href="#bI"/><use transform="matrix(0.04320987654320988,0,0,0.04320987654320988,36.25308641975309,0)" xlink:href="#an"/><use transform="matrix(0.04320987654320988,0,0,0.04320987654320988,41.39506172839506,0)" xlink:href="#aE"/><use transform="matrix(0.04320987654320988,0,0,0.04320987654320988,44.808641975308646,0)" xlink:href="#br"/></g><path fill="#666" d="M137 0h-34L2-248h35l83 218 83-218h36" id="bJ"/><g id="M"><use transform="matrix(0.04320987654320988,0,0,0.04320987654320988,0,0)" xlink:href="#bJ"/><use transform="matrix(0.04320987654320988,0,0,0.04320987654320988,10.067901234567902,0)" xlink:href="#aE"/><use transform="matrix(0.04320987654320988,0,0,0.04320987654320988,13.481481481481483,0)" xlink:href="#bD"/><use transform="matrix(0.04320987654320988,0,0,0.04320987654320988,21.25925925925926,0)" xlink:href="#aE"/><use transform="matrix(0.04320987654320988,0,0,0.04320987654320988,24.672839506172842,0)" xlink:href="#bp"/><use transform="matrix(0.04320987654320988,0,0,0.04320987654320988,28.99382716049383,0)" xlink:href="#ak"/><use transform="matrix(0.04320987654320988,0,0,0.04320987654320988,37.635802469135804,0)" xlink:href="#aF"/><use transform="matrix(0.04320987654320988,0,0,0.04320987654320988,46.277777777777786,0)" xlink:href="#bp"/><use transform="matrix(0.04320987654320988,0,0,0.04320987654320988,50.59876543209877,0)" xlink:href="#am"/></g><path fill="#666" d="M185-189c-5-48-123-54-124 2 14 75 158 14 163 119 3 78-121 87-175 55-17-10-28-26-33-46l33-7c5 56 141 63 141-1 0-78-155-14-162-118-5-82 145-84 179-34 5 7 8 16 11 25" id="bK"/><g id="N"><use transform="matrix(0.04320987654320988,0,0,0.04320987654320988,0,0)" xlink:href="#bK"/><use transform="matrix(0.04320987654320988,0,0,0.04320987654320988,10.370370370370372,0)" xlink:href="#aE"/><use transform="matrix(0.04320987654320988,0,0,0.04320987654320988,13.783950617283953,0)" xlink:href="#bD"/><use transform="matrix(0.04320987654320988,0,0,0.04320987654320988,21.56172839506173,0)" xlink:href="#bp"/><use transform="matrix(0.04320987654320988,0,0,0.04320987654320988,25.88271604938272,0)" xlink:href="#am"/><use transform="matrix(0.04320987654320988,0,0,0.04320987654320988,34.5246913580247,0)" xlink:href="#bs"/><use transform="matrix(0.04320987654320988,0,0,0.04320987654320988,47.44444444444445,0)" xlink:href="#ak"/></g><path fill="#fff" d="M205 0l-28-72H64L36 0H1l101-248h38L239 0h-34zm-38-99l-47-123c-12 45-31 82-46 123h93" id="bL"/><path fill="#fff" d="M100-194c62-1 85 37 85 99 1 63-27 99-86 99S16-35 15-95c0-66 28-99 85-99zM99-20c44 1 53-31 53-75 0-43-8-75-51-75s-53 32-53 75 10 74 51 75zM76-211c8-23 27-35 38-54h36v5l-58 49H76" id="bM"/><g id="O"><use transform="matrix(0.04320987654320988,0,0,0.04320987654320988,0,0)" xlink:href="#bL"/><use transform="matrix(0.04320987654320988,0,0,0.04320987654320988,10.370370370370372,0)" xlink:href="#az"/><use transform="matrix(0.04320987654320988,0,0,0.04320987654320988,19.01234567901235,0)" xlink:href="#bM"/><use transform="matrix(0.04320987654320988,0,0,0.04320987654320988,27.654320987654323,0)" xlink:href="#aA"/></g><use transform="matrix(0.04320987654320988,0,0,0.04320987654320988,0,0)" xlink:href="#as" id="P"/><path fill="#fff" d="M238-95c0 69-44 99-111 99C63 4 22-25 22-93v-155h51v151c-1 38 19 59 55 60 90 1 49-130 58-211h52v153" id="bN"/><path fill="#fff" d="M137-138c1-29-70-34-71-4 15 46 118 7 119 86 1 83-164 76-172 9l43-7c4 19 20 25 44 25 33 8 57-30 24-41C81-84 22-81 20-136c-2-80 154-74 161-7" id="bO"/><path fill="#fff" d="M85 4C-2 5 27-109 22-190h50c7 57-23 150 33 157 60-5 35-97 40-157h50l1 190h-47c-2-12 1-28-3-38-12 25-28 42-61 42" id="bP"/><path fill="#fff" d="M132-34C116-15 102 5 68 4 31 3 10-16 10-54c-1-60 55-63 116-61 1-26-3-47-28-47-18 1-26 9-28 27l-52-2c7-38 36-58 82-57s74 22 75 68l1 82c-1 14 12 18 25 15v27c-30 8-71 5-69-32zm-48 3c29 0 43-24 42-57-32 0-66-3-65 30 0 17 8 27 23 27zM66-208v-5l45-51h45v8l-60 48H66" id="bQ"/><path fill="#fff" d="M135-150c-39-12-60 13-60 57V0H25l-1-190h47c2 13-1 29 3 40 6-28 27-53 61-41v41" id="bR"/><path fill="#fff" d="M25-224v-37h50v37H25zM25 0v-190h50V0H25" id="bS"/><path fill="#fff" d="M110-194c64 0 96 36 96 99 0 64-35 99-97 99-61 0-95-36-95-99 0-62 34-99 96-99zm-1 164c35 0 45-28 45-65 0-40-10-65-43-65-34 0-45 26-45 65 0 36 10 65 43 65" id="bT"/><g id="Q"><use transform="matrix(0.04320987654320988,0,0,0.04320987654320988,0,0)" xlink:href="#bN"/><use transform="matrix(0.04320987654320988,0,0,0.04320987654320988,11.19135802469136,0)" xlink:href="#bO"/><use transform="matrix(0.04320987654320988,0,0,0.04320987654320988,19.833333333333336,0)" xlink:href="#bP"/><use transform="matrix(0.04320987654320988,0,0,0.04320987654320988,29.296296296296298,0)" xlink:href="#bQ"/><use transform="matrix(0.04320987654320988,0,0,0.04320987654320988,37.93827160493827,0)" xlink:href="#bR"/><use transform="matrix(0.04320987654320988,0,0,0.04320987654320988,43.98765432098766,0)" xlink:href="#bS"/><use transform="matrix(0.04320987654320988,0,0,0.04320987654320988,48.308641975308646,0)" xlink:href="#bT"/></g><path fill="#fff" d="M147 0H94L2-248h55l64 206c17-72 42-137 63-206h54" id="bU"/><path fill="#fff" d="M115-3C79 11 28 4 28-45v-112H4v-33h27l15-45h31v45h36v33H77v99c-1 23 16 31 38 25v30" id="bV"/><path fill="#fff" d="M133-34C117-15 103 5 69 4 32 3 11-16 11-54c-1-60 55-63 116-61 1-26-3-47-28-47-18 1-26 9-28 27l-52-2c7-38 36-58 82-57s74 22 75 68l1 82c-1 14 12 18 25 15v27c-30 8-71 5-69-32zm-48 3c29 0 43-24 42-57-32 0-66-3-65 30 0 17 8 27 23 27" id="bW"/><path fill="#fff" d="M135-194c87-1 58 113 63 194h-50c-7-57 23-157-34-157-59 0-34 97-39 157H25l-1-190h47c2 12-1 28 3 38 12-26 28-41 61-42" id="bX"/><path fill="#fff" d="M185-48c-13 30-37 53-82 52C43 2 14-33 14-96s30-98 90-98c62 0 83 45 84 108H66c0 31 8 55 39 56 18 0 30-7 34-22zm-45-69c5-46-57-63-70-21-2 6-4 13-4 21h74" id="bY"/><g id="R"><use transform="matrix(0.04320987654320988,0,0,0.04320987654320988,0,0)" xlink:href="#bU"/><use transform="matrix(0.04320987654320988,0,0,0.04320987654320988,10.067901234567902,0)" xlink:href="#bS"/><use transform="matrix(0.04320987654320988,0,0,0.04320987654320988,14.388888888888891,0)" xlink:href="#bO"/><use transform="matrix(0.04320987654320988,0,0,0.04320987654320988,23.030864197530867,0)" xlink:href="#bS"/><use transform="matrix(0.04320987654320988,0,0,0.04320987654320988,27.351851851851855,0)" xlink:href="#bO"/><use transform="matrix(0.04320987654320988,0,0,0.04320987654320988,35.99382716049383,0)" xlink:href="#bV"/><use transform="matrix(0.04320987654320988,0,0,0.04320987654320988,41.135802469135804,0)" xlink:href="#bW"/><use transform="matrix(0.04320987654320988,0,0,0.04320987654320988,49.777777777777786,0)" xlink:href="#bX"/><use transform="matrix(0.04320987654320988,0,0,0.04320987654320988,59.24074074074074,0)" xlink:href="#bV"/><use transform="matrix(0.04320987654320988,0,0,0.04320987654320988,64.38271604938272,0)" xlink:href="#bY"/></g><g id="S"><use transform="matrix(0.04320987654320988,0,0,0.04320987654320988,0,0)" xlink:href="#aB"/><use transform="matrix(0.04320987654320988,0,0,0.04320987654320988,10.370370370370372,0)" xlink:href="#at"/><use transform="matrix(0.04320987654320988,0,0,0.04320987654320988,19.01234567901235,0)" xlink:href="#au"/><use transform="matrix(0.04320987654320988,0,0,0.04320987654320988,23.333333333333336,0)" xlink:href="#ap"/><use transform="matrix(0.04320987654320988,0,0,0.04320987654320988,28.47530864197531,0)" xlink:href="#ar"/><use transform="matrix(0.04320987654320988,0,0,0.04320987654320988,37.117283950617285,0)" xlink:href="#ap"/></g><g id="T"><use transform="matrix(0.04320987654320988,0,0,0.04320987654320988,0,0)" xlink:href="#bx"/><use transform="matrix(0.04320987654320988,0,0,0.04320987654320988,8.641975308641976,0)" xlink:href="#ay"/></g><path fill="#fff" d="M84 4C-5 8 30-112 23-190h32v120c0 31 7 50 39 49 72-2 45-101 50-169h31l1 190h-30c-1-10 1-25-2-33-11 22-28 36-60 37" id="bZ"/><g id="U"><use transform="matrix(0.04320987654320988,0,0,0.04320987654320988,0,0)" xlink:href="#bZ"/><use transform="matrix(0.04320987654320988,0,0,0.04320987654320988,8.641975308641976,0)" xlink:href="#ay"/><use transform="matrix(0.04320987654320988,0,0,0.04320987654320988,21.56172839506173,0)" xlink:href="#ar"/></g><g id="V"><use transform="matrix(0.04320987654320988,0,0,0.04320987654320988,0,0)" xlink:href="#aC"/><use transform="matrix(0.04320987654320988,0,0,0.04320987654320988,7.777777777777779,0)" xlink:href="#as"/><use transform="matrix(0.04320987654320988,0,0,0.04320987654320988,16.419753086419753,0)" xlink:href="#at"/><use transform="matrix(0.04320987654320988,0,0,0.04320987654320988,25.061728395061728,0)" xlink:href="#au"/><use transform="matrix(0.04320987654320988,0,0,0.04320987654320988,29.382716049382715,0)" xlink:href="#ar"/></g><g id="W"><use transform="matrix(0.04320987654320988,0,0,0.04320987654320988,0,0)" xlink:href="#bx"/><use transform="matrix(0.04320987654320988,0,0,0.04320987654320988,8.641975308641976,0)" xlink:href="#aw"/><use transform="matrix(0.04320987654320988,0,0,0.04320987654320988,12.055555555555557,0)" xlink:href="#bx"/></g><g id="X"><use transform="matrix(0.04320987654320988,0,0,0.04320987654320988,0,0)" xlink:href="#az"/><use transform="matrix(0.04320987654320988,0,0,0.04320987654320988,8.641975308641976,0)" xlink:href="#ar"/><use transform="matrix(0.04320987654320988,0,0,0.04320987654320988,17.283950617283953,0)" xlink:href="#aA"/><use transform="matrix(0.04320987654320988,0,0,0.04320987654320988,25.06172839506173,0)" xlink:href="#aA"/><use transform="matrix(0.04320987654320988,0,0,0.04320987654320988,32.839506172839506,0)" xlink:href="#ar"/></g><use transform="matrix(0.04320987654320988,0,0,0.04320987654320988,0,0)" xlink:href="#ar" id="Y"/><g id="Z"><use transform="matrix(0.04320987654320988,0,0,0.04320987654320988,0,0)" xlink:href="#aA"/><use transform="matrix(0.04320987654320988,0,0,0.04320987654320988,7.777777777777779,0)" xlink:href="#bx"/></g><g id="aa"><use transform="matrix(0.04320987654320988,0,0,0.04320987654320988,0,0)" xlink:href="#au"/><use transform="matrix(0.04320987654320988,0,0,0.04320987654320988,4.320987654320988,0)" xlink:href="#as"/><use transform="matrix(0.04320987654320988,0,0,0.04320987654320988,12.962962962962964,0)" xlink:href="#ap"/><use transform="matrix(0.04320987654320988,0,0,0.04320987654320988,18.10493827160494,0)" xlink:href="#at"/><use transform="matrix(0.04320987654320988,0,0,0.04320987654320988,26.746913580246915,0)" xlink:href="#ar"/><use transform="matrix(0.04320987654320988,0,0,0.04320987654320988,35.38888888888889,0)" xlink:href="#ap"/></g><g id="ab"><use transform="matrix(0.04320987654320988,0,0,0.04320987654320988,0,0)" xlink:href="#bZ"/><use transform="matrix(0.04320987654320988,0,0,0.04320987654320988,8.641975308641976,0)" xlink:href="#ay"/></g><path fill="#fff" d="M24-248c93 1 206-16 204 79-1 75-69 88-152 82V0H24v-248zm52 121c47 0 100 7 100-41 0-47-54-39-100-39v80" id="ca"/><path fill="#fff" d="M25 0v-261h50V0H25" id="cb"/><path fill="#fff" d="M123 10C108 53 80 86 19 72V37c35 8 53-11 59-39L3-190h52l48 148c12-52 28-100 44-148h51" id="cc"/><g id="ac"><use transform="matrix(0.04320987654320988,0,0,0.04320987654320988,0,0)" xlink:href="#ca"/><use transform="matrix(0.04320987654320988,0,0,0.04320987654320988,10.370370370370372,0)" xlink:href="#cb"/><use transform="matrix(0.04320987654320988,0,0,0.04320987654320988,14.691358024691363,0)" xlink:href="#bW"/><use transform="matrix(0.04320987654320988,0,0,0.04320987654320988,23.333333333333336,0)" xlink:href="#cc"/><use transform="matrix(0.04320987654320988,0,0,0.04320987654320988,31.97530864197531,0)" xlink:href="#bY"/><use transform="matrix(0.04320987654320988,0,0,0.04320987654320988,40.617283950617285,0)" xlink:href="#bR"/></g><path fill="#fff" d="M101-234c-31-9-42 10-38 44h38v23H63V0H32v-167H5v-23h27c-7-52 17-82 69-68v24" id="cd"/><g id="ad"><use transform="matrix(0.04320987654320988,0,0,0.04320987654320988,0,0)" xlink:href="#ao"/><use transform="matrix(0.04320987654320988,0,0,0.04320987654320988,11.19135802469136,0)" xlink:href="#as"/><use transform="matrix(0.04320987654320988,0,0,0.04320987654320988,19.833333333333336,0)" xlink:href="#at"/><use transform="matrix(0.04320987654320988,0,0,0.04320987654320988,28.47530864197531,0)" xlink:href="#cd"/><use transform="matrix(0.04320987654320988,0,0,0.04320987654320988,32.7962962962963,0)" xlink:href="#aq"/><use transform="matrix(0.04320987654320988,0,0,0.04320987654320988,36.20987654320988,0)" xlink:href="#ap"/><use transform="matrix(0.04320987654320988,0,0,0.04320987654320988,41.351851851851855,0)" xlink:href="#ay"/><use transform="matrix(0.04320987654320988,0,0,0.04320987654320988,54.27160493827161,0)" xlink:href="#ar"/><use transform="matrix(0.04320987654320988,0,0,0.04320987654320988,62.91358024691359,0)" xlink:href="#ap"/></g><g id="ae"><use transform="matrix(0.04320987654320988,0,0,0.04320987654320988,0,0)" xlink:href="#bv"/><use transform="matrix(0.04320987654320988,0,0,0.04320987654320988,10.370370370370372,0)" xlink:href="#ap"/><use transform="matrix(0.04320987654320988,0,0,0.04320987654320988,15.512345679012347,0)" xlink:href="#bx"/><use transform="matrix(0.04320987654320988,0,0,0.04320987654320988,24.154320987654323,0)" xlink:href="#aA"/><use transform="matrix(0.04320987654320988,0,0,0.04320987654320988,31.9320987654321,0)" xlink:href="#bx"/><use transform="matrix(0.04320987654320988,0,0,0.04320987654320988,40.574074074074076,0)" xlink:href="#at"/><use transform="matrix(0.04320987654320988,0,0,0.04320987654320988,49.21604938271606,0)" xlink:href="#bF"/><use transform="matrix(0.04320987654320988,0,0,0.04320987654320988,56.99382716049384,0)" xlink:href="#ar"/><use transform="matrix(0.04320987654320988,0,0,0.04320987654320988,65.63580246913581,0)" xlink:href="#aA"/></g><path fill="#fff" d="M143 4C61 4 22-44 18-125c-5-107 100-154 193-111 17 8 29 25 37 43l-32 9c-13-25-37-40-76-40-61 0-88 39-88 99 0 61 29 100 91 101 35 0 62-11 79-27v-45h-74v-28h105v86C228-13 192 4 143 4" id="ce"/><g id="af"><use transform="matrix(0.04320987654320988,0,0,0.04320987654320988,0,0)" xlink:href="#ce"/><use transform="matrix(0.04320987654320988,0,0,0.04320987654320988,12.098765432098766,0)" xlink:href="#bx"/><use transform="matrix(0.04320987654320988,0,0,0.04320987654320988,20.74074074074074,0)" xlink:href="#ap"/><use transform="matrix(0.04320987654320988,0,0,0.04320987654320988,25.882716049382715,0)" xlink:href="#bx"/><use transform="matrix(0.04320987654320988,0,0,0.04320987654320988,34.52469135802469,0)" xlink:href="#at"/><use transform="matrix(0.04320987654320988,0,0,0.04320987654320988,43.166666666666664,0)" xlink:href="#aC"/><use transform="matrix(0.04320987654320988,0,0,0.04320987654320988,50.94444444444444,0)" xlink:href="#aq"/><use transform="matrix(0.04320987654320988,0,0,0.04320987654320988,54.35802469135802,0)" xlink:href="#ar"/><use transform="matrix(0.04320987654320988,0,0,0.04320987654320988,63,0)" xlink:href="#ap"/></g><path fill="#fff" d="M141 0L90-78 38 0H4l68-98-65-92h35l48 74 47-74h35l-64 92 68 98h-35" id="cf"/><g id="ag"><use transform="matrix(0.04320987654320988,0,0,0.04320987654320988,0,0)" xlink:href="#aB"/><use transform="matrix(0.04320987654320988,0,0,0.04320987654320988,10.370370370370372,0)" xlink:href="#cf"/><use transform="matrix(0.04320987654320988,0,0,0.04320987654320988,18.148148148148152,0)" xlink:href="#aC"/><use transform="matrix(0.04320987654320988,0,0,0.04320987654320988,25.925925925925927,0)" xlink:href="#aw"/><use transform="matrix(0.04320987654320988,0,0,0.04320987654320988,29.339506172839513,0)" xlink:href="#bZ"/><use transform="matrix(0.04320987654320988,0,0,0.04320987654320988,37.98148148148149,0)" xlink:href="#aq"/><use transform="matrix(0.04320987654320988,0,0,0.04320987654320988,41.39506172839507,0)" xlink:href="#ap"/></g><g id="ah"><use transform="matrix(0.04320987654320988,0,0,0.04320987654320988,0,0)" xlink:href="#bx"/><use transform="matrix(0.04320987654320988,0,0,0.04320987654320988,8.641975308641976,0)" xlink:href="#by"/><use transform="matrix(0.04320987654320988,0,0,0.04320987654320988,16.419753086419753,0)" xlink:href="#bx"/><use transform="matrix(0.04320987654320988,0,0,0.04320987654320988,25.061728395061728,0)" xlink:href="#at"/><use transform="matrix(0.04320987654320988,0,0,0.04320987654320988,33.7037037037037,0)" xlink:href="#au"/><use transform="matrix(0.04320987654320988,0,0,0.04320987654320988,38.02469135802469,0)" xlink:href="#as"/></g></defs></g></svg>